<?xml version="1.0" encoding="utf-8"?>
<!-- Generator: Adobe Illustrator 27.9.0, SVG Export Plug-In . SVG Version: 6.00 Build 0)  -->
<svg version="1.1" id="Layer_1" xmlns="http://www.w3.org/2000/svg" xmlns:xlink="http://www.w3.org/1999/xlink" x="0px" y="0px"
	 viewBox="0 0 300 300" style="enable-background:new 0 0 300 300;" xml:space="preserve">
<style type="text/css">
	.st0{fill:#5C8DBC;}
	.st1{fill:#1A4674;}
	.st2{fill:#1B598E;}
	.st3{fill:#FFFFFF;}
</style>
<g>
	<path class="st0" d="M277,91.2c0-4.8-1-9-3.1-12.7c-2-3.6-5.1-6.6-9.2-9C230.9,50.1,197,30.6,163.2,11.1c-9.1-5.3-17.9-5.1-27,0.3
		c-13.5,7.9-80.8,46.5-100.9,58.2C27,74.3,23,81.7,23,91.2c0,39.2,0,78.4,0,117.6c0,4.7,1,8.9,3,12.4c2,3.7,5.1,6.8,9.3,9.2
		c20.1,11.6,87.5,50.2,100.9,58.2c9,5.3,17.9,5.5,27,0.3c33.8-19.5,67.7-39,101.5-58.5c4.2-2.4,7.3-5.5,9.3-9.2c2-3.6,3-7.7,3-12.4
		C277,208.8,277,130.4,277,91.2"/>
	<path class="st1" d="M150.4,149.6L26,221.3c2,3.7,5.1,6.8,9.3,9.2c20.1,11.6,87.5,50.2,100.9,58.2c9,5.3,17.9,5.5,27,0.3
		c33.8-19.5,67.7-39,101.5-58.5c4.2-2.4,7.3-5.5,9.3-9.2L150.4,149.6"/>
	<path class="st1" d="M113.5,170.8c7.2,12.6,20.9,21.2,36.5,21.2c15.7,0,29.4-8.6,36.6-21.4l-36.2-21L113.5,170.8"/>
	<path class="st2" d="M277,91.2c0-4.8-1-9-3.1-12.7l-123.5,71.1L274,221.2c2-3.6,3-7.7,3-12.4C277,208.8,277,130.4,277,91.2"/>
	<path class="st3" d="M270.2,154.7h-9.7v9.7h-9.7v-9.7h-9.7v-9.7h9.7v-9.7h9.7v9.7h9.7V154.7 M234.9,154.7h-9.7v9.7h-9.7v-9.7h-9.7
		v-9.7h9.7v-9.7h9.7v9.7h9.7V154.7"/>
	<path class="st3" d="M186.6,170.6c-7.2,12.8-20.9,21.4-36.6,21.4c-15.6,0-29.2-8.5-36.5-21.2c-3.6-6.3-5.5-13.5-5.5-20.8
		c0-23.2,18.8-42,42-42c15.5,0,29.1,8.4,36.3,20.9l36.7-21.1c-14.6-25.2-41.8-42.1-73-42.1c-46.6,0-84.3,37.8-84.3,84.3
		c0,15.3,4.1,29.6,11.2,42c14.6,25.3,41.9,42.4,73.2,42.4c31.4,0,58.7-17.1,73.3-42.5L186.6,170.6"/>
</g>
</svg>
