<?xml version="1.0" encoding="utf-8"?>
<!-- Generator: Adobe Illustrator 27.9.0, SVG Export Plug-In . SVG Version: 6.00 Build 0)  -->
<svg version="1.1" id="Layer_1" xmlns="http://www.w3.org/2000/svg" xmlns:xlink="http://www.w3.org/1999/xlink" x="0px" y="0px"
	 viewBox="0 0 300 300" style="enable-background:new 0 0 300 300;" xml:space="preserve">
<style type="text/css">
	.st0{fill:#004482;}
	.st1{fill:#00599C;}
	.st2{fill:#659AD2;}
	.st3{fill:#FFFFFF;}
</style>
<g>
	<path class="st0" d="M279.9,89.8c0.1-4.5-1-9-3.2-13c-2.3-3.8-5.5-7-9.4-9.2c-34.6-20-69.2-39.9-103.8-59.8
		c-9.3-5.4-18.4-5.2-27.6,0.3c-13.8,8.1-82.7,47.6-103.3,59.6C24.1,72.5,20,80,20,89.8v120.5c-0.1,4.4,1,8.8,3,12.7
		c2.3,4,5.6,7.2,9.6,9.4c20.5,12,89.5,51.5,103.3,59.6c9.3,5.5,18.3,5.7,27.6,0.3c34.6-20,69.2-39.9,103.8-59.9
		c4-2.2,7.3-5.5,9.6-9.4c2.1-3.9,3.1-8.3,3-12.7L279.9,89.8L279.9,89.8z"/>
	<path class="st1" d="M279.9,210.2c0.1,4.4-1,8.8-3,12.7c-0.5,0.9-1.1,1.8-1.7,2.7L150,150l117.4-82.4c3.9,2.2,7.1,5.3,9.4,9.2
		c2.2,4,3.3,8.5,3.2,13C279.9,129.9,279.9,210.2,279.9,210.2L279.9,210.2z"/>
	<path class="st2" d="M276.7,76.8L23,223c-2.1-3.9-3.1-8.3-3-12.7V89.8c0-9.8,4.1-17.3,12.6-22.2C53.1,55.7,122.1,16.1,135.9,8
		c9.2-5.5,18.3-5.7,27.6-0.3c34.6,20,69.2,39.9,103.8,59.9C271.2,69.8,274.5,72.9,276.7,76.8z"/>
	<path class="st3" d="M155,198.7c-17.4,0-33.4-9.4-41.8-24.7c-0.4-0.7-0.8-1.5-1.2-2.3c-11.5-23.7-1.6-52.3,22.2-63.8
		c19.8-9.6,43.7-4.4,57.7,12.7c0.6,0.8,1.2,1.6,1.8,2.4c0.3,0.4,0.6,0.8,0.8,1.2l41.9-24.1c-1-1.6-2.1-3.2-3.2-4.8
		c-0.6-0.8-1.2-1.6-1.8-2.4c-32.2-41.8-92.1-49.6-133.9-17.4c-36.7,28.3-47.9,78.8-26.4,119.9c0.4,0.8,0.8,1.5,1.2,2.3
		c26,45.9,84.3,62,130.2,36c13.5-7.7,25-18.6,33.4-31.7l-41-24.8C186.1,190.6,171.1,198.7,155,198.7L155,198.7z"/>
</g>
</svg>
