<?xml version="1.0" encoding="utf-8"?>
<!-- Generator: Adobe Illustrator 27.9.0, SVG Export Plug-In . SVG Version: 6.00 Build 0)  -->
<svg version="1.1" id="Layer_1" xmlns="http://www.w3.org/2000/svg" xmlns:xlink="http://www.w3.org/1999/xlink" x="0px" y="0px"
	 viewBox="0 0 300 300" style="enable-background:new 0 0 300 300;" xml:space="preserve">
<style type="text/css">
	.st0{fill:url(#SVGID_1_);}
	.st1{fill:url(#SVGID_00000002380133912038434770000003064413493050270386_);}
	.st2{fill:url(#SVGID_00000176740781938796379230000003101226781875491215_);}
	.st3{fill:url(#SVGID_00000053520325078314389870000005527318479304081340_);}
	.st4{fill:url(#SVGID_00000029023234693543572410000012491693782773967788_);}
	.st5{fill:url(#SVGID_00000163760016855399596270000005832333622692269743_);}
	.st6{fill:url(#SVGID_00000004515460832241525400000009526337802392448953_);}
	.st7{fill:url(#SVGID_00000065765070486350726480000000794435219582037156_);}
</style>
<g>
	<linearGradient id="SVGID_1_" gradientUnits="userSpaceOnUse" x1="152.7903" y1="86.9806" x2="152.7903" y2="11">
		<stop  offset="0" style="stop-color:#40A944"/>
		<stop  offset="1" style="stop-color:#11E900"/>
	</linearGradient>
	<path class="st0" d="M114.8,49.1c-0.1-20.9,16.8-38,37.8-38.1c20.9-0.1,38,16.9,38.1,37.8c0.1,21-16.9,38.1-38,38.2
		C131.9,87.1,115,70.1,114.8,49.1z"/>
	
		<linearGradient id="SVGID_00000109749502411554866570000016855255140803005830_" gradientUnits="userSpaceOnUse" x1="80.2049" y1="197.033" x2="80.2049" y2="83.6815">
		<stop  offset="0" style="stop-color:#40A944"/>
		<stop  offset="1" style="stop-color:#11E900"/>
	</linearGradient>
	<path style="fill:url(#SVGID_00000109749502411554866570000016855255140803005830_);" d="M119,83.7c2.3,1.7,4.2,3.3,6.3,4.7
		c1.7,1.1,1.6,1.9,0.4,3.4c-8.7,11.5-17.3,23-26,34.5c-4.5,5.9-8.9,11.9-13.4,17.8c-1,1.3-1.1,2.1,0.1,3.5
		c12.3,14.7,8.6,35.9-7.8,45.5c-10.3,6-23.3,5.1-33-2.3c-9.4-7.1-13.7-19.6-10.8-30.9c4.6-17.6,22.9-27.2,39.7-20.7
		c1.8,0.7,2.5,0.2,3.6-1.1c13-17.4,26.1-34.8,39.2-52.1C117.7,85.2,118.3,84.6,119,83.7z"/>
	
		<linearGradient id="SVGID_00000105387528755536364790000006019232253624072099_" gradientUnits="userSpaceOnUse" x1="223.2982" y1="197.0509" x2="223.2982" y2="85.9403">
		<stop  offset="0" style="stop-color:#40A944"/>
		<stop  offset="1" style="stop-color:#11E900"/>
	</linearGradient>
	<path style="fill:url(#SVGID_00000105387528755536364790000006019232253624072099_);" d="M209.6,166.9c0-7.2,2.3-13.5,6.9-18.9
		c1.2-1.4,0.9-2.2-0.1-3.5c-12.7-16.8-25.3-33.6-37.9-50.4c-1.9-2.5-1.9-2.5,0.6-4.4c1.3-1,2.7-1.8,3.9-2.9c1.5-1.4,2.3-1,3.5,0.5
		c10.2,13.6,20.4,27.1,30.6,40.7c2.6,3.5,5.3,6.9,7.8,10.5c1,1.4,1.9,1.5,3.5,0.9c11.3-4.2,22-2.7,31,5.3
		c8.9,7.9,12.1,18.1,9.1,29.7c-3.1,11.8-10.9,19.4-22.8,22C226.9,200.4,209.5,186,209.6,166.9z"/>
	
		<linearGradient id="SVGID_00000002379589402058939570000012665072615546458014_" gradientUnits="userSpaceOnUse" x1="151.879" y1="197.2631" x2="151.879" y2="97.0031">
		<stop  offset="0" style="stop-color:#40A944"/>
		<stop  offset="1" style="stop-color:#11E900"/>
	</linearGradient>
	<path style="fill:url(#SVGID_00000002379589402058939570000012665072615546458014_);" d="M157.1,117.6c0,5.9,0.1,11.8,0,17.7
		c0,1.7,0.5,2.4,2.2,2.8c12.2,3.2,20.7,12.6,22.2,24.8c1.6,13-3.4,23.2-14.6,29.9c-10.4,6.2-21.3,5.8-31.4-0.8
		c-9.8-6.5-14.4-16-13.3-27.8c1.2-12.9,9.8-22.8,22.3-26c1.7-0.4,2.3-1.2,2.3-3c-0.1-11.7,0-23.4-0.1-35.2c0-2.3,0.7-3.2,3-3
		c2.4,0.3,5.5-0.5,6.9,0.8c1.2,1.1,0.5,4.4,0.5,6.7C157.2,108.9,157.1,113.2,157.1,117.6z"/>
	
		<linearGradient id="SVGID_00000155833523904269299160000009697940862937878433_" gradientUnits="userSpaceOnUse" x1="152.4532" y1="289" x2="152.4532" y2="188.3015">
		<stop  offset="0" style="stop-color:#40A944"/>
		<stop  offset="1" style="stop-color:#11E900"/>
	</linearGradient>
	<path style="fill:url(#SVGID_00000155833523904269299160000009697940862937878433_);" d="M205.3,188.3c2.2,2.7,4.2,5.2,6.4,7.9
		c-2.4,1.9-4.6,3.7-6.7,5.5c-24.2,19.7-48.5,39.4-72.7,59c-1.4,1.1-1.7,2.1-1.3,3.9c1.9,7.9-0.2,14.7-6.4,19.8
		c-6.3,5.1-13.4,5.9-20.7,2.4c-9.6-4.6-13.5-16.6-8.6-26.1c5-9.7,17-13.4,26.4-8c2,1.2,3.1,0.9,4.8-0.4
		c25.6-20.9,51.2-41.7,76.8-62.5C203.8,189.4,204.5,188.9,205.3,188.3z"/>
	
		<linearGradient id="SVGID_00000043421357732842875170000016623795813374243720_" gradientUnits="userSpaceOnUse" x1="197.1344" y1="288.8529" x2="197.1344" y2="200.5943">
		<stop  offset="0" style="stop-color:#40A944"/>
		<stop  offset="1" style="stop-color:#11E900"/>
	</linearGradient>
	<path style="fill:url(#SVGID_00000043421357732842875170000016623795813374243720_);" d="M226,204.8c-3.8,7.4-7.4,14.6-11,21.7
		c-4.5,8.9-9,17.9-13.5,26.8c-0.8,1.5-0.5,2.4,0.5,3.6c5.3,6.1,6.4,14.3,2.8,21.3c-3.8,7.4-10.1,11-18.4,10.7
		c-7.8-0.3-14.4-5.5-17.1-13c-4.3-12,4.8-25.2,17.5-25.4c0.8,0,1.6-0.1,2.4,0.1c1.6,0.3,2.3-0.5,3-1.8c7.7-15.4,15.5-30.7,23.2-46.1
		c1-2,1.8-2.5,3.8-1.3C221.3,202.5,223.5,203.5,226,204.8z"/>
	
		<linearGradient id="SVGID_00000087403206970871695490000011976799364885692067_" gradientUnits="userSpaceOnUse" x1="37.7642" y1="288.9755" x2="37.7642" y2="205.4404">
		<stop  offset="0" style="stop-color:#40A944"/>
		<stop  offset="1" style="stop-color:#11E900"/>
	</linearGradient>
	<path style="fill:url(#SVGID_00000087403206970871695490000011976799364885692067_);" d="M57.9,207.7c-1.7,7.1-3.4,13.8-5.1,20.6
		c-1.8,7.4-3.6,14.9-5.6,22.3c-0.4,1.7-0.1,2.7,1.3,3.8c6,4.7,8.5,11,7.3,18.4c-1.2,7.3-5.6,12.5-12.6,15c-7.4,2.6-14.2,1-19.7-4.4
		c-5.7-5.6-7.5-12.6-4.7-20.3c2.6-7.4,8.1-11.5,15.8-12.6c1.5-0.2,2.2-0.7,2.6-2.2c3.3-13.6,6.7-27.1,10-40.7
		c0.5-2.2,1.3-2.6,3.3-1.9C52.9,206.5,55.2,207,57.9,207.7z"/>
	
		<linearGradient id="SVGID_00000107559201948981789460000002919506908073341847_" gradientUnits="userSpaceOnUse" x1="262.5358" y1="288.8975" x2="262.5358" y2="207.4733">
		<stop  offset="0" style="stop-color:#40A944"/>
		<stop  offset="1" style="stop-color:#11E900"/>
	</linearGradient>
	<path style="fill:url(#SVGID_00000107559201948981789460000002919506908073341847_);" d="M252.4,207.5c1.9,7.5,3.6,14.6,5.4,21.7
		c1.6,6.4,3.1,12.7,4.7,19.1c0.3,1.4,0.9,2.1,2.5,2.2c10,0.8,17.9,10,17.4,19.9c-0.6,10.4-9.1,18.6-19.4,18.5
		c-10.2,0-18.7-8.1-19.2-18.2c-0.3-6.7,2.2-12.2,7.4-16.3c1.4-1.1,1.6-2.1,1.2-3.7c-3.3-12.9-6.4-25.9-9.7-38.8
		c-0.4-1.5-0.1-2.2,1.5-2.5C246.9,208.9,249.5,208.2,252.4,207.5z"/>
</g>
</svg>
