<?xml version="1.0" encoding="utf-8"?>
<!-- Generator: Adobe Illustrator 27.9.0, SVG Export Plug-In . SVG Version: 6.00 Build 0)  -->
<svg version="1.1" id="Layer_1" xmlns="http://www.w3.org/2000/svg" xmlns:xlink="http://www.w3.org/1999/xlink" x="0px" y="0px"
	 viewBox="0 0 300 300" style="enable-background:new 0 0 300 300;" xml:space="preserve">
<style type="text/css">
	.st0{fill-rule:evenodd;clip-rule:evenodd;fill:#3174B9;}
	.st1{fill-rule:evenodd;clip-rule:evenodd;fill:#CA3132;}
</style>
<g>
	<path class="st0" d="M112.2,228.7c0,0-11,6.4,7.8,8.6c22.8,2.6,34.5,2.2,59.6-2.5c0,0,6.6,4.1,15.9,7.7
		C139.1,266.7,67.9,241.1,112.2,228.7z M105.3,197.2c0,0-12.3,9.1,6.5,11.1c24.4,2.5,43.6,2.7,77-3.7c0,0,4.6,4.7,11.8,7.2
		C132.5,231.7,56.5,213.4,105.3,197.2z"/>
	<path class="st1" d="M163.4,143.7c13.9,16-3.6,30.4-3.6,30.4s35.3-18.2,19.1-41c-15.1-21.3-26.7-31.8,36.1-68.2
		C214.9,64.8,116.3,89.4,163.4,143.7z"/>
	<path class="st0" d="M238,252c0,0,8.1,6.7-9,11.9c-32.5,9.9-135.4,12.8-164,0.4c-10.3-4.5,9-10.7,15.1-12c6.3-1.4,9.9-1.1,9.9-1.1
		c-11.4-8-73.9,15.8-31.7,22.6C173.2,292.5,267.8,265.5,238,252L238,252z M117.5,164.5c0,0-52.3,12.4-18.5,17
		c14.3,1.9,42.7,1.5,69.2-0.8c21.7-1.8,43.4-5.7,43.4-5.7s-7.6,3.3-13.2,7c-53.2,14-155.8,7.5-126.3-6.8
		C97.2,163.1,117.5,164.5,117.5,164.5L117.5,164.5z M211.4,217c54-28.1,29.1-55.1,11.6-51.4c-4.3,0.9-6.2,1.7-6.2,1.7
		s1.6-2.5,4.6-3.6c34.5-12.1,61,35.8-11.1,54.7C210.3,218.4,211.1,217.7,211.4,217z"/>
	<path class="st1" d="M178.8,6c0,0,29.9,29.9-28.4,76c-46.8,36.9-10.7,58,0,82c-27.3-24.6-47.3-46.3-33.9-66.5
		C136.2,67.9,190.9,53.5,178.8,6L178.8,6z"/>
	<path class="st0" d="M122.8,293.1c51.9,3.3,131.5-1.8,133.4-26.4c0,0-3.6,9.3-42.9,16.7c-44.3,8.3-98.9,7.4-131.3,2
		C82.1,285.4,88.7,290.9,122.8,293.1z"/>
</g>
</svg>
