<?xml version="1.0" encoding="utf-8"?>
<!-- Generator: Adobe Illustrator 27.9.0, SVG Export Plug-In . SVG Version: 6.00 Build 0)  -->
<svg version="1.1" id="Layer_1" xmlns="http://www.w3.org/2000/svg" xmlns:xlink="http://www.w3.org/1999/xlink" x="0px" y="0px"
	 viewBox="0 0 300 300" style="enable-background:new 0 0 300 300;" xml:space="preserve">
<style type="text/css">
	.st0{fill:#40A944;}
	.st1{fill:#0A72BF;}
	.st2{fill:#FFAB03;}
	.st3{opacity:0.3;}
	.st4{fill:#FFFFFF;}
</style>
<g>
	<g>
		<g>
			<path class="st0" d="M124.4,76.9c0-5.1-0.8-10-2.2-14.6l13.1-8.4l-14.8-23.1l-13.2,8.4c-5.6-4.8-12.2-8.5-19.5-10.6V13H60.5v15.6
				c-7.3,2.1-13.9,5.8-19.5,10.6l-13.2-8.4L13,53.9l13.1,8.4c-1.4,4.6-2.1,9.5-2.1,14.6s0.8,10,2.2,14.6L13,100l14.8,23.1l13.2-8.4
				c5.6,4.9,12.2,8.6,19.5,10.6v15.6h27.4v-15.6c7.3-2.1,13.9-5.8,19.5-10.6l13.2,8.4l14.8-23.1l-13.1-8.4
				C123.6,86.9,124.4,82,124.4,76.9L124.4,76.9z M74.2,104.3c-15.1,0-27.4-12.3-27.4-27.4s12.3-27.4,27.4-27.4s27.4,12.3,27.4,27.4
				S89.3,104.3,74.2,104.3z"/>
		</g>
		<g>
			<path class="st1" d="M276.1,223.1c0-5.1-0.8-10-2.2-14.6L287,200l-14.8-23.1l-13.2,8.4c-5.6-4.9-12.2-8.6-19.5-10.6v-15.6h-27.4
				v15.6c-7.3,2.1-13.9,5.8-19.5,10.6l-13.2-8.4L164.6,200l13.1,8.4c-1.4,4.6-2.2,9.5-2.2,14.6s0.8,10,2.2,14.6l-13.1,8.4l14.8,23.1
				l13.2-8.4c5.6,4.9,12.2,8.6,19.5,10.6V287h27.4v-15.6c7.3-2.1,13.9-5.8,19.5-10.6l13.2,8.4l14.8-23.1l-13.1-8.4
				C275.3,233.1,276.1,228.1,276.1,223.1L276.1,223.1z M225.8,250.5c-15.1,0-27.4-12.3-27.4-27.4s12.3-27.4,27.4-27.4
				s27.4,12.3,27.4,27.4S241,250.5,225.8,250.5z"/>
		</g>
		<g>
			<path class="st2" d="M81.6,165c1.8,8.2,5,15.9,9.4,22.7l-11.1,14.9l17.4,17.4l14.9-11.1c6.9,4.4,14.5,7.6,22.7,9.4l2.7,18.4h24.5
				l2.7-18.4c8.2-1.8,15.9-5,22.7-9.4l14.9,11.1l17.4-17.4L209,187.8c4.4-6.9,7.6-14.5,9.4-22.7l18.4-2.7v-24.5l-18.4-2.7
				c-1.8-8.2-5-15.9-9.4-22.7L220,97.3L202.7,80L187.7,91c-6.9-4.4-14.5-7.6-22.7-9.4l-2.7-18.4h-24.5L135,81.6
				c-8.2,1.8-15.9,5-22.7,9.4L97.3,79.9L80,97.3L91,112.2c-4.4,6.9-7.6,14.5-9.4,22.7l-18.4,2.7v24.5L81.6,165z M116.9,150
				c0-18.3,14.8-33.1,33.1-33.1c18.3,0,33.1,14.8,33.1,33.1s-14.8,33.1-33.1,33.1C131.7,183.1,116.9,168.3,116.9,150z"/>
		</g>
		<g class="st3">
			<path class="st4" d="M209,112.2l11.1-14.9l-17.4-17.4L187.8,91c-6.9-4.4-14.5-7.6-22.7-9.4l-2.7-18.4h-24.5L135,81.6
				c-8.2,1.8-15.9,5-22.7,9.4l-2.7-2c-1,5-1.5,10-1.5,15.3c0,13.8,3.5,26.8,9.7,38.1c3.4-14.7,16.5-25.6,32.2-25.6
				c18.3,0,33.1,14.8,33.1,33.1c0,13.5-8,25-19.5,30.2c7.6,2.4,15.7,3.7,24.1,3.7c9,0,17.7-1.6,25.8-4.3c2.1-4.6,3.9-9.5,5-14.6
				l18.4-2.7v-24.5l-18.4-2.7C216.6,126.8,213.4,119.1,209,112.2L209,112.2z"/>
		</g>
	</g>
	<g>
		<path d="M294,138.4c-1.3-1.3-3.5-1.3-4.8,0l-7.9,7.9c-1.9-70.7-60-127.7-131.2-127.7c-1.9,0-3.4,1.6-3.4,3.4
			c0,1.9,1.6,3.4,3.4,3.4c67.4,0,122.4,53.8,124.4,120.7l-7.8-7.8c-1.3-1.3-3.5-1.3-4.8,0c-1.3,1.3-1.3,3.5,0,4.8l13.7,13.7
			c0.7,0.7,1.6,1,2.4,1c0.9,0,1.7-0.3,2.4-1l13.7-13.7C295.3,142,295.3,139.8,294,138.4L294,138.4z"/>
		<path d="M150,274.5c-67.4,0-122.4-53.8-124.4-120.7l7.8,7.8c0.7,0.7,1.6,1,2.4,1c0.9,0,1.7-0.3,2.4-1c1.3-1.3,1.3-3.5,0-4.8
			L24.5,143c-1.3-1.3-3.5-1.3-4.8,0L6,156.7c-1.3,1.3-1.3,3.5,0,4.8c1.3,1.3,3.5,1.3,4.8,0l7.9-7.9c1.9,70.7,60,127.7,131.2,127.7
			c1.9,0,3.4-1.6,3.4-3.4S151.9,274.5,150,274.5z"/>
	</g>
</g>
</svg>
