<?xml version="1.0" encoding="utf-8"?>
<!-- Generator: Adobe Illustrator 27.9.0, SVG Export Plug-In . SVG Version: 6.00 Build 0)  -->
<svg version="1.1" id="Layer_1" xmlns="http://www.w3.org/2000/svg" xmlns:xlink="http://www.w3.org/1999/xlink" x="0px" y="0px"
	 viewBox="0 0 300 300" style="enable-background:new 0 0 300 300;" xml:space="preserve">
<style type="text/css">
	.st0{fill:url(#SVGID_1_);}
	.st1{fill:url(#SVGID_00000013899212006229507230000015523209898592294331_);}
</style>
<g>
	
		<linearGradient id="SVGID_1_" gradientUnits="userSpaceOnUse" x1="1.0157" y1="300.9839" x2="1.0937" y2="300.9064" gradientTransform="matrix(1849.2675 0 0 -1853.3917 -1846.8516 557872.625)">
		<stop  offset="0" style="stop-color:#387EB8"/>
		<stop  offset="1" style="stop-color:#366994"/>
	</linearGradient>
	<path class="st0" d="M148.9,4.8c-74.1,0-69.5,32.1-69.5,32.1l0.1,33.3h70.7v10H51.4c0,0-47.4-5.4-47.4,69.4
		c0,74.8,41.4,72.1,41.4,72.1h24.7v-34.7c0,0-1.3-41.4,40.7-41.4H181c0,0,39.4,0.6,39.4-38.1v-64C220.4,43.5,226.4,4.8,148.9,4.8z
		 M109.9,27.2c7,0,12.7,5.7,12.7,12.7c0,0,0,0,0,0c0,7-5.7,12.7-12.7,12.7c0,0,0,0,0,0c-7,0-12.7-5.7-12.7-12.7c0,0,0,0,0,0
		C97.2,32.9,102.9,27.2,109.9,27.2C109.9,27.2,109.9,27.2,109.9,27.2z"/>
	
		<linearGradient id="SVGID_00000011002003152677274420000003156292750865477300_" gradientUnits="userSpaceOnUse" x1="0.7152" y1="301.2727" x2="0.799" y2="301.1933" gradientTransform="matrix(1849.2671 0 0 -1853.3918 -1202.3882 558500)">
		<stop  offset="0" style="stop-color:#FFE052"/>
		<stop  offset="1" style="stop-color:#FFC331"/>
	</linearGradient>
	<path style="fill:url(#SVGID_00000011002003152677274420000003156292750865477300_);" d="M151.1,295.2c74.1,0,69.5-32.1,69.5-32.1
		l-0.1-33.3h-70.7v-10h98.8c0,0,47.4,5.4,47.4-69.4c0-74.8-41.4-72.1-41.4-72.1h-24.7v34.7c0,0,1.3,41.4-40.7,41.4H119
		c0,0-39.4-0.6-39.4,38.1v64C79.6,256.5,73.6,295.2,151.1,295.2L151.1,295.2z M190.1,272.8c-7,0-12.7-5.7-12.7-12.7c0,0,0,0,0,0
		c0-7,5.7-12.7,12.7-12.7c0,0,0,0,0,0c7,0,12.7,5.7,12.7,12.7c0,0,0,0,0,0C202.8,267.1,197.1,272.8,190.1,272.8
		C190.1,272.8,190.1,272.8,190.1,272.8L190.1,272.8z"/>
</g>
</svg>
