<?xml version="1.0" encoding="utf-8"?>
<!-- Generator: Adobe Illustrator 27.9.0, SVG Export Plug-In . SVG Version: 6.00 Build 0)  -->
<svg version="1.1" id="Layer_1" xmlns="http://www.w3.org/2000/svg" xmlns:xlink="http://www.w3.org/1999/xlink" x="0px" y="0px"
	 viewBox="0 0 300 300" style="enable-background:new 0 0 300 300;" xml:space="preserve">
<style type="text/css">
	.st0{fill-rule:evenodd;clip-rule:evenodd;fill:#0072C6;}
	.st1{fill-rule:evenodd;clip-rule:evenodd;fill:#21A4F4;}
	.st2{fill-rule:evenodd;clip-rule:evenodd;fill:#FFFFFF;}
	.st3{fill-rule:evenodd;clip-rule:evenodd;fill:#7FBA00;}
	.st4{fill-rule:evenodd;clip-rule:evenodd;fill:#B8D432;}
</style>
<g id="A">
	<g>
		<path class="st0" d="M150,44.6V295c-60.1,0-108.8-17.7-108.8-39.6V44.6H150z"/>
		<g>
			<path id="C_00000057126450317057565140000002030024459160309174_" class="st0" d="M148.5,295V44.6h110.2v210.8
				c0,21.9-48.7,39.6-108.8,39.6L148.5,295L148.5,295z"/>
		</g>
	</g>
	<g>
		<path id="C_00000085967193883424532010000016766558810073791875_" class="st1" d="M148.5,295V44.6h110.2v210.8
			c0,21.9-48.7,39.6-108.8,39.6L148.5,295L148.5,295z"/>
	</g>
	<path class="st2" d="M258.8,44.6C258.8,22.7,210.1,5,150,5S41.2,22.7,41.2,44.6S89.9,84.2,150,84.2S258.8,66.5,258.8,44.6"/>
	<path class="st3" d="M236.5,42.3c0-14.4-38.7-26.1-86.5-26.1S63.5,27.9,63.5,42.3s38.7,26.1,86.5,26.1S236.5,56.8,236.5,42.3"/>
	<path class="st4" d="M218.4,58.3c-15.8-6.2-40.5-10.2-68.4-10.2s-52.6,4-68.4,10.2c-11.3-4.4-18.1-10-18.1-16
		c0-14.4,38.7-26.1,86.5-26.1s86.5,11.7,86.5,26.1C236.5,48.4,229.7,53.9,218.4,58.3"/>
	<path class="st2" d="M115.5,190.9c0-4.7-1.3-8.6-4.1-11.7c-2.7-3.1-7.3-6.2-13.7-9.3c-4.3-2.1-7.1-3.8-8.5-5.2
		c-1.4-1.4-2.1-3.2-2.1-5.4c-0.1-2,0.9-3.9,2.6-5.1c1.7-1.3,4.1-1.9,7-1.9c5.9,0,11.2,1.6,15.8,4.8v-14.4c-4.4-1.8-10-2.6-16.7-2.6
		c-7.6,0-13.6,1.9-18.2,5.6c-4.6,3.7-6.8,8.7-6.8,14.9c0,8.5,5.2,15.3,15.7,20.2c5.1,2.4,8.5,4.4,10.2,6c1.7,1.5,2.5,3.4,2.5,5.4
		c0,2.1-0.9,3.8-2.6,5.1c-1.7,1.3-4.2,1.9-7.4,1.9c-6.6,0-12.7-2.3-18.1-7v15.4c4.8,2.6,10.7,3.9,17.8,3.9c8.3,0,14.8-1.8,19.6-5.4
		C113.1,202.5,115.5,197.5,115.5,190.9L115.5,190.9z M189.3,175.3c0-6.8-1.4-12.9-4.1-18.3s-6.6-9.5-11.6-12.5
		c-5-2.9-10.7-4.4-17-4.4c-6.8,0-12.8,1.5-18,4.5s-9.3,7.3-12.2,12.9c-2.9,5.6-4.3,12-4.3,19.1c0,6.4,1.3,12.3,4,17.5
		s6.4,9.4,11.3,12.4s10.4,4.6,16.5,4.9l14.2,16h20.1L168.3,209c6.7-2.4,11.8-6.6,15.5-12.6C187.5,190.5,189.3,183.4,189.3,175.3
		L189.3,175.3z M173,176.2c0,6.8-1.6,12.1-4.7,16c-3.1,3.9-7.4,5.8-12.7,5.8c-5.2,0-9.4-2-12.6-6s-4.7-9.4-4.7-16.1
		c0-6.8,1.6-12.2,4.8-16.3c3.2-4.1,7.5-6.1,12.9-6.1c5.3,0,9.4,2,12.4,6.1S173,169.2,173,176.2L173,176.2z M241.5,197.7h-25.4v-56.4
		h-15.5v69h40.9L241.5,197.7z"/>
</g>
</svg>
